<mxfile host="app.diagrams.net" modified="2022-01-04T15:23:24.653Z" agent="5.0 (Windows NT 10.0; Win64; x64) AppleWebKit/537.36 (KHTML, like Gecko) Chrome/94.0.4606.54 Safari/537.36" etag="5IeqrsinZCGZMNti_C_m" version="16.1.4" type="github">
  <diagram id="_TIN9xBcjHOKU6HHU-8S" name="Page-1">
    <mxGraphModel dx="1117" dy="677" grid="1" gridSize="10" guides="1" tooltips="1" connect="1" arrows="1" fold="1" page="1" pageScale="1" pageWidth="827" pageHeight="1169" math="0" shadow="0">
      <root>
        <mxCell id="0" />
        <mxCell id="1" parent="0" />
        <mxCell id="_EbX7hSi9YxjiiOlLoKN-1" value="Index" style="ellipse;whiteSpace=wrap;html=1;aspect=fixed;fontSize=16;" vertex="1" parent="1">
          <mxGeometry x="40" y="80" width="80" height="80" as="geometry" />
        </mxCell>
        <mxCell id="_EbX7hSi9YxjiiOlLoKN-2" value="0" style="rounded=0;whiteSpace=wrap;html=1;fontSize=16;" vertex="1" parent="1">
          <mxGeometry x="160" y="90" width="50" height="60" as="geometry" />
        </mxCell>
        <mxCell id="_EbX7hSi9YxjiiOlLoKN-3" value="1" style="rounded=0;whiteSpace=wrap;html=1;fontSize=16;" vertex="1" parent="1">
          <mxGeometry x="240" y="90" width="50" height="60" as="geometry" />
        </mxCell>
        <mxCell id="_EbX7hSi9YxjiiOlLoKN-4" value="2" style="rounded=0;whiteSpace=wrap;html=1;fontSize=16;" vertex="1" parent="1">
          <mxGeometry x="320" y="90" width="50" height="60" as="geometry" />
        </mxCell>
        <mxCell id="_EbX7hSi9YxjiiOlLoKN-5" value="3" style="rounded=0;whiteSpace=wrap;html=1;fontSize=16;" vertex="1" parent="1">
          <mxGeometry x="400" y="90" width="50" height="60" as="geometry" />
        </mxCell>
        <mxCell id="_EbX7hSi9YxjiiOlLoKN-6" value="4" style="rounded=0;whiteSpace=wrap;html=1;fontSize=16;" vertex="1" parent="1">
          <mxGeometry x="480" y="90" width="50" height="60" as="geometry" />
        </mxCell>
        <mxCell id="_EbX7hSi9YxjiiOlLoKN-7" value="5" style="rounded=0;whiteSpace=wrap;html=1;fontSize=16;" vertex="1" parent="1">
          <mxGeometry x="560" y="90" width="50" height="60" as="geometry" />
        </mxCell>
        <mxCell id="_EbX7hSi9YxjiiOlLoKN-8" value="6" style="rounded=0;whiteSpace=wrap;html=1;fontSize=16;" vertex="1" parent="1">
          <mxGeometry x="640" y="90" width="50" height="60" as="geometry" />
        </mxCell>
        <mxCell id="_EbX7hSi9YxjiiOlLoKN-9" value="7" style="rounded=0;whiteSpace=wrap;html=1;fontSize=16;" vertex="1" parent="1">
          <mxGeometry x="720" y="90" width="50" height="60" as="geometry" />
        </mxCell>
        <mxCell id="_EbX7hSi9YxjiiOlLoKN-10" value="8" style="rounded=0;whiteSpace=wrap;html=1;fontSize=16;" vertex="1" parent="1">
          <mxGeometry x="800" y="90" width="50" height="60" as="geometry" />
        </mxCell>
        <mxCell id="_EbX7hSi9YxjiiOlLoKN-11" value="9" style="rounded=0;whiteSpace=wrap;html=1;fontSize=16;" vertex="1" parent="1">
          <mxGeometry x="880" y="90" width="50" height="60" as="geometry" />
        </mxCell>
        <mxCell id="_EbX7hSi9YxjiiOlLoKN-12" value="Index" style="ellipse;whiteSpace=wrap;html=1;aspect=fixed;fontSize=16;" vertex="1" parent="1">
          <mxGeometry x="40" y="200" width="80" height="80" as="geometry" />
        </mxCell>
        <mxCell id="_EbX7hSi9YxjiiOlLoKN-13" value="5" style="rounded=0;whiteSpace=wrap;html=1;fontSize=16;" vertex="1" parent="1">
          <mxGeometry x="160" y="210" width="50" height="60" as="geometry" />
        </mxCell>
        <mxCell id="_EbX7hSi9YxjiiOlLoKN-14" value="6" style="rounded=0;whiteSpace=wrap;html=1;fontSize=16;" vertex="1" parent="1">
          <mxGeometry x="240" y="210" width="50" height="60" as="geometry" />
        </mxCell>
        <mxCell id="_EbX7hSi9YxjiiOlLoKN-15" value="5" style="rounded=0;whiteSpace=wrap;html=1;fontSize=16;" vertex="1" parent="1">
          <mxGeometry x="320" y="210" width="50" height="60" as="geometry" />
        </mxCell>
        <mxCell id="_EbX7hSi9YxjiiOlLoKN-16" value="5" style="rounded=0;whiteSpace=wrap;html=1;fontSize=16;" vertex="1" parent="1">
          <mxGeometry x="400" y="210" width="50" height="60" as="geometry" />
        </mxCell>
        <mxCell id="_EbX7hSi9YxjiiOlLoKN-17" value="5" style="rounded=0;whiteSpace=wrap;html=1;fontSize=16;" vertex="1" parent="1">
          <mxGeometry x="480" y="210" width="50" height="60" as="geometry" />
        </mxCell>
        <mxCell id="_EbX7hSi9YxjiiOlLoKN-18" value="" style="rounded=0;whiteSpace=wrap;html=1;fontSize=16;" vertex="1" parent="1">
          <mxGeometry x="560" y="210" width="50" height="60" as="geometry" />
        </mxCell>
        <mxCell id="_EbX7hSi9YxjiiOlLoKN-19" value="" style="rounded=0;whiteSpace=wrap;html=1;fontSize=16;" vertex="1" parent="1">
          <mxGeometry x="640" y="210" width="50" height="60" as="geometry" />
        </mxCell>
        <mxCell id="_EbX7hSi9YxjiiOlLoKN-20" value="" style="rounded=0;whiteSpace=wrap;html=1;fontSize=16;" vertex="1" parent="1">
          <mxGeometry x="720" y="210" width="50" height="60" as="geometry" />
        </mxCell>
        <mxCell id="_EbX7hSi9YxjiiOlLoKN-21" value="" style="rounded=0;whiteSpace=wrap;html=1;fontSize=16;" vertex="1" parent="1">
          <mxGeometry x="800" y="210" width="50" height="60" as="geometry" />
        </mxCell>
        <mxCell id="_EbX7hSi9YxjiiOlLoKN-22" value="" style="rounded=0;whiteSpace=wrap;html=1;fontSize=16;" vertex="1" parent="1">
          <mxGeometry x="880" y="210" width="50" height="60" as="geometry" />
        </mxCell>
        <mxCell id="_EbX7hSi9YxjiiOlLoKN-23" value="" style="shape=flexArrow;endArrow=classic;html=1;rounded=0;fontSize=16;" edge="1" parent="1">
          <mxGeometry width="50" height="50" relative="1" as="geometry">
            <mxPoint x="184.29000000000002" y="380" as="sourcePoint" />
            <mxPoint x="184.29000000000002" y="310" as="targetPoint" />
          </mxGeometry>
        </mxCell>
        <mxCell id="_EbX7hSi9YxjiiOlLoKN-24" value="20" style="rounded=0;whiteSpace=wrap;html=1;fontSize=16;" vertex="1" parent="1">
          <mxGeometry x="160" y="410" width="50" height="60" as="geometry" />
        </mxCell>
      </root>
    </mxGraphModel>
  </diagram>
</mxfile>
